<svg width="130" height="43" viewBox="0 0 130 43" fill="none" xmlns="http://www.w3.org/2000/svg">
<path d="M54.8198 14.2155C53.824 14.2155 52.9112 14.4644 52.0481 14.9292C51.1851 15.3939 50.4382 16.0743 49.8076 16.9373H49.7578V14.4976H45.3099V31.0943H49.7578V23.3934C49.7578 22.1321 50.1229 21.0865 50.8698 20.2733C51.6166 19.4766 52.6622 19.0617 53.9899 19.0617C54.3219 19.0617 54.7202 19.0783 55.1683 19.1115V14.2321C55.1019 14.2321 54.9857 14.2155 54.8198 14.2155ZM67.9949 14.4976V16.3731H67.9285C66.6837 14.9457 65.0573 14.2155 63.0325 14.2155C61.9371 14.2155 60.8915 14.4313 59.9289 14.8628C58.9663 15.2943 58.1364 15.8918 57.4394 16.6386C56.7423 17.4021 56.2112 18.3149 55.8129 19.3771C55.4146 20.4558 55.2154 21.6176 55.2154 22.8458C55.2154 24.1071 55.4146 25.2855 55.8129 26.3477C56.2112 27.4098 56.7589 28.3227 57.456 29.0529C58.153 29.7832 58.9995 30.364 59.9787 30.7624C60.9579 31.1773 62.0201 31.3764 63.1652 31.3764C65.2896 31.3764 66.9327 30.613 68.1276 29.0861H68.2106V31.0943H72.4428V14.4976H67.9949ZM63.9785 27.3932C62.7171 27.3932 61.7047 26.9783 60.9081 26.1319C60.1114 25.3021 59.7297 24.2067 59.7297 22.8624C59.7297 21.4682 60.128 20.3563 60.9413 19.4932C61.7545 18.6468 62.7669 18.2153 63.9951 18.2153C65.19 18.2153 66.1858 18.6634 66.9825 19.543C67.7791 20.4392 68.1774 21.5346 68.1774 22.8624C68.1774 24.2067 67.7625 25.3021 66.9659 26.1319C66.1526 26.9783 65.1568 27.3932 63.9785 27.3932ZM84.8212 14.2155C82.6968 14.2155 81.0206 14.9457 79.7924 16.4063H79.726V14.4976H75.2781V37.8159H79.726V29.2355H79.7924C80.9708 30.6628 82.5973 31.3764 84.6884 31.3764C85.817 31.3764 86.8792 31.1773 87.8584 30.7624C88.8376 30.364 89.684 29.7832 90.3811 29.0529C91.0782 28.3227 91.6425 27.4098 92.0408 26.3477C92.4391 25.2855 92.6383 24.1071 92.6383 22.8458C92.6383 21.85 92.5055 20.9205 92.2565 20.0243C91.991 19.1281 91.6259 18.3315 91.1611 17.6344C90.6964 16.9373 90.1322 16.3233 89.5015 15.8088C88.8542 15.2943 88.124 14.896 87.3273 14.6304C86.5307 14.3649 85.6842 14.2155 84.8212 14.2155ZM83.8752 27.3932C83.062 27.3932 82.3317 27.2107 81.6679 26.8456C81.004 26.4804 80.4895 25.9327 80.1078 25.2357C79.726 24.5386 79.5435 23.7586 79.5435 22.8624C79.5435 22.2151 79.6431 21.601 79.8588 21.0201C80.0746 20.4558 80.3733 19.9579 80.755 19.543C81.1202 19.1447 81.5849 18.8128 82.116 18.5804C82.6471 18.3481 83.2445 18.2153 83.8752 18.2153C85.0868 18.2153 86.0992 18.6468 86.9124 19.4932C87.709 20.3563 88.124 21.4682 88.124 22.8624C88.124 24.2067 87.7256 25.3021 86.929 26.1319C86.1324 26.9783 85.12 27.3932 83.8752 27.3932ZM104.535 14.4976L100.735 24.771H100.685L96.6188 14.4976H91.9717L98.6104 30.0653L95.6562 37.8159H100.204L109.149 14.4976H104.535ZM121.71 6.06653V16.3731H121.627C120.366 14.9457 118.706 14.2155 116.615 14.2155C115.52 14.2155 114.474 14.4313 113.512 14.8628C112.549 15.2943 111.719 15.8918 111.022 16.6386C110.325 17.4021 109.794 18.3149 109.396 19.3771C108.997 20.4558 108.798 21.6176 108.798 22.8458C108.798 23.576 108.864 24.2731 108.997 24.9369C109.13 25.6008 109.313 26.2149 109.562 26.7792C109.81 27.3435 110.109 27.8745 110.474 28.3559C110.823 28.8537 111.221 29.2687 111.686 29.6338C112.134 29.9989 112.615 30.3143 113.146 30.5798C113.678 30.8453 114.242 31.0445 114.856 31.1773C115.453 31.3101 116.084 31.3764 116.748 31.3764C118.922 31.3764 120.615 30.613 121.826 29.0861H121.926V31.0943H126.158V6.06653H121.71ZM117.561 27.3932C116.3 27.3932 115.287 26.9783 114.491 26.1319C113.694 25.3021 113.312 24.2067 113.312 22.8624C113.312 21.4682 113.711 20.3563 114.524 19.4932C115.337 18.6468 116.35 18.2153 117.578 18.2153C118.839 18.2153 119.868 18.6634 120.698 19.543C121.528 20.4392 121.943 21.5346 121.943 22.8624C121.943 23.7586 121.743 24.5386 121.345 25.2357C120.947 25.9327 120.432 26.4804 119.768 26.8456C119.105 27.2107 118.358 27.3932 117.561 27.3932Z" fill="#1354DC"/>
<path d="M31.5308 12.3826C31.2367 12.3826 30.9426 12.2802 30.7064 12.0687C27.8512 9.52249 24.1881 8.1197 20.3928 8.1197C16.5974 8.1197 12.9343 9.52249 10.0792 12.0687C9.56861 12.5214 8.78377 12.4817 8.32939 11.9679C7.87336 11.4573 7.91797 10.6725 8.43018 10.2181C11.7397 7.26712 15.9878 5.64127 20.3928 5.64127C24.7978 5.64127 29.0458 7.26712 32.3553 10.2181C32.8675 10.6741 32.9122 11.4573 32.4561 11.9679C32.2116 12.2422 31.8712 12.3826 31.5308 12.3826Z" fill="#1354DC"/>
<path d="M33.2002 18.6795C32.8053 18.6795 32.417 18.4912 32.1775 18.1409C29.4908 14.2283 25.0858 11.8919 20.3933 11.8919C15.7008 11.8919 11.2958 14.2283 8.6092 18.1425C8.22256 18.7043 7.45425 18.8547 6.88586 18.4631C6.32243 18.0764 6.17868 17.3048 6.56697 16.7414C9.71458 12.1513 14.8829 9.41348 20.3933 9.41348C25.9037 9.41348 31.0721 12.153 34.2197 16.7397C34.6063 17.3032 34.4626 18.0748 33.9008 18.4614C33.686 18.6101 33.4398 18.6795 33.2002 18.6795Z" fill="#1354DC"/>
<path d="M17.2813 37.0348C16.9674 37.0348 16.6518 36.9158 16.4106 36.6779C16.1925 36.4631 11.0654 31.341 11.0654 26.3676C11.0654 21.1777 15.249 16.9561 20.3943 16.9561C25.5395 16.9561 29.7231 21.1777 29.7231 26.3676C29.7231 27.0516 29.1679 27.6068 28.4839 27.6068C27.7998 27.6068 27.2446 27.0516 27.2446 26.3676C27.2446 22.5458 24.173 19.4346 20.3943 19.4346C16.6155 19.4346 13.5439 22.5442 13.5439 26.3676C13.5439 30.3033 18.1091 34.8703 18.1538 34.9149C18.6395 35.3974 18.6445 36.1805 18.1637 36.668C17.9208 36.9125 17.6019 37.0348 17.2813 37.0348Z" fill="#1354DC"/>
<path d="M23.5043 37.0348C21.0623 37.0348 15.4048 32.5092 14.8579 27.468C14.6629 25.6505 15.2231 23.8545 16.3945 22.5425C17.4322 21.3793 18.8416 20.7349 20.365 20.7267C21.9049 20.7581 23.2631 21.2967 24.3239 22.3525C25.3979 23.4199 25.9894 24.8458 25.9894 26.3659V26.9938C25.9894 28.39 27.1096 29.5268 28.4843 29.5268C29.859 29.5268 30.9793 28.39 30.9793 26.9938V26.7741C30.9793 20.9183 26.6404 16.0457 21.1019 15.6855C18.146 15.4873 15.3536 16.4968 13.2023 18.511C11.0461 20.5317 9.80851 23.3951 9.80851 26.3659C9.80851 28.8493 10.6694 31.2683 12.2291 33.1783C12.662 33.7087 12.5827 34.4886 12.054 34.9215C11.5236 35.356 10.7437 35.2751 10.3092 34.7464C8.3892 32.3951 7.33008 29.4177 7.33008 26.3659C7.33008 22.7111 8.85349 19.1884 11.5071 16.7017C14.1639 14.2133 17.6371 12.9741 21.2589 13.2121C28.0977 13.6598 33.4528 19.6163 33.4528 26.7741V26.9938C33.4528 29.7564 31.2205 32.0052 28.4794 32.0052C25.7382 32.0052 23.506 29.7581 23.506 26.9938V26.3659C23.506 25.5101 23.1739 24.7087 22.5725 24.1089C21.9875 23.5257 21.2126 23.2051 20.3914 23.2051C20.3848 23.2051 20.3799 23.2051 20.3749 23.2051C19.334 23.2101 18.64 23.7454 18.2401 24.1932C17.5445 24.9731 17.2009 26.0966 17.3198 27.202C17.7329 30.994 22.2982 34.5563 23.5043 34.5563C24.1884 34.5563 24.7436 35.1115 24.7436 35.7956C24.7436 36.4796 24.1884 37.0348 23.5043 37.0348Z" fill="#1354DC"/>
<path d="M27.1608 35.1495C23.4994 35.1495 19.0762 30.951 19.0762 25.7381C19.0762 25.054 19.6313 24.4988 20.3154 24.4988C20.9994 24.4988 21.5546 25.054 21.5546 25.7381C21.5546 29.5648 24.9468 32.6711 27.1608 32.6711C27.8449 32.6711 28.4 33.2262 28.4 33.9103C28.4 34.5943 27.8449 35.1495 27.1608 35.1495Z" fill="#1354DC"/>
</svg>
