<svg width="65" height="73" viewBox="0 0 65 73" fill="none" xmlns="http://www.w3.org/2000/svg">
<path d="M57.8926 15.7429C57.2197 15.7429 56.5467 15.5084 56.0061 15.0245C49.473 9.19847 41.0912 5.98867 32.407 5.98867C23.7227 5.98867 15.341 9.19847 8.80791 15.0245C7.63968 16.0604 5.84385 15.9697 4.80416 14.7939C3.76069 13.6257 3.86277 11.8298 5.03478 10.7901C12.6075 4.03783 22.3277 0.317627 32.407 0.317627C42.4863 0.317627 52.2065 4.03783 59.7792 10.7901C60.9512 11.8336 61.0533 13.6257 60.0098 14.7939C59.4503 15.4215 58.6715 15.7429 57.8926 15.7429Z" fill="white"/>
<path d="M61.712 30.1506C60.8084 30.1506 59.92 29.7196 59.3718 28.9181C53.2244 19.9654 43.1451 14.6195 32.4079 14.6195C21.6707 14.6195 11.5914 19.9654 5.444 28.9219C4.55932 30.2073 2.8013 30.5514 1.50074 29.6553C0.211526 28.7707 -0.117394 27.0051 0.771068 25.7159C7.97329 15.2131 19.7993 8.94849 32.4079 8.94849C45.0165 8.94849 56.8425 15.2169 64.0447 25.7121C64.9294 27.0013 64.6005 28.7669 63.315 29.6516C62.8236 29.9918 62.2602 30.1506 61.712 30.1506Z" fill="white"/>
<path d="M25.2874 72.1503C24.5691 72.1503 23.847 71.878 23.295 71.3336C22.7959 70.8421 11.0645 59.122 11.0645 47.7421C11.0645 35.8669 20.6372 26.2073 32.4102 26.2073C44.1833 26.2073 53.756 35.8669 53.756 47.7421C53.756 49.3073 52.4857 50.5776 50.9205 50.5776C49.3553 50.5776 48.085 49.3073 48.085 47.7421C48.085 38.9974 41.0567 31.8783 32.4102 31.8783C23.7638 31.8783 16.7355 38.9936 16.7355 47.7421C16.7355 56.7477 27.1815 67.1975 27.2836 67.2996C28.3951 68.4036 28.4065 70.1956 27.3063 71.3109C26.7505 71.8705 26.0209 72.1503 25.2874 72.1503Z" fill="white"/>
<path d="M39.5268 72.1508C33.9389 72.1508 20.9938 61.7955 19.7424 50.2606C19.2963 46.1018 20.5779 41.9922 23.2585 38.9903C25.6327 36.3287 28.8577 34.8542 32.3435 34.8353C35.8671 34.9072 38.9748 36.1397 41.402 38.5555C43.8594 40.9979 45.2129 44.2606 45.2129 47.7388V49.1755C45.2129 52.3702 47.7762 54.9713 50.9218 54.9713C54.0673 54.9713 56.6306 52.3702 56.6306 49.1755V48.6727C56.6306 35.2739 46.7025 24.1246 34.0296 23.3005C27.266 22.8468 20.8766 25.1568 15.9542 29.7654C11.0204 34.3892 8.18862 40.9412 8.18862 47.7388C8.18862 53.4212 10.1584 58.9562 13.7273 63.3266C14.7179 64.5402 14.5364 66.3247 13.3266 67.3153C12.113 68.3096 10.3285 68.1243 9.33417 66.9145C4.941 61.5346 2.51758 54.7218 2.51758 47.7388C2.51758 39.376 6.00338 31.3155 12.0752 25.6256C18.1545 19.9319 26.1015 17.0963 34.3888 17.6408C50.0371 18.6653 62.2903 32.2947 62.2903 48.6727V49.1755C62.2903 55.4968 57.1826 60.6423 50.9104 60.6423C44.6383 60.6423 39.5306 55.5006 39.5306 49.1755V47.7388C39.5306 45.7804 38.7706 43.9468 37.3945 42.5744C36.0561 41.2398 34.2829 40.5064 32.4039 40.5064C32.3888 40.5064 32.3775 40.5064 32.3661 40.5064C29.9843 40.5177 28.3964 41.7427 27.4815 42.7672C25.8898 44.5517 25.1034 47.1226 25.3756 49.6519C26.3208 58.3286 36.7669 66.4797 39.5268 66.4797C41.092 66.4797 42.3623 67.75 42.3623 69.3153C42.3623 70.8805 41.092 72.1508 39.5268 72.1508Z" fill="white"/>
<path d="M47.8935 67.8369C39.5154 67.8369 29.3945 58.2302 29.3945 46.3021C29.3945 44.7369 30.6648 43.4666 32.2301 43.4666C33.7953 43.4666 35.0656 44.7369 35.0656 46.3021C35.0656 55.0582 42.8273 62.1659 47.8935 62.1659C49.4587 62.1659 50.729 63.4362 50.729 65.0014C50.729 66.5666 49.4587 67.8369 47.8935 67.8369Z" fill="white"/>
</svg>
