<svg width="91" height="31" viewBox="0 0 91 31" fill="none" xmlns="http://www.w3.org/2000/svg">
<path d="M38.3086 10.5928C37.6055 10.5928 36.9609 10.7686 36.3516 11.0967C35.7422 11.4248 35.2148 11.9053 34.7695 12.5146H34.7344V10.792H31.5938V22.5107H34.7344V17.0732C34.7344 16.1826 34.9922 15.4443 35.5195 14.8701C36.0469 14.3076 36.7852 14.0146 37.7227 14.0146C37.957 14.0146 38.2383 14.0264 38.5547 14.0498V10.6045C38.5078 10.6045 38.4258 10.5928 38.3086 10.5928ZM47.6114 10.792V12.1162H47.5645C46.6856 11.1084 45.5372 10.5928 44.1075 10.5928C43.3341 10.5928 42.5958 10.7451 41.9161 11.0498C41.2364 11.3545 40.6505 11.7764 40.1583 12.3037C39.6661 12.8428 39.2911 13.4873 39.0098 14.2373C38.7286 14.999 38.588 15.8193 38.588 16.6865C38.588 17.5771 38.7286 18.4092 39.0098 19.1592C39.2911 19.9092 39.6778 20.5537 40.17 21.0693C40.6622 21.585 41.2598 21.9951 41.9513 22.2764C42.6427 22.5693 43.3927 22.71 44.2013 22.71C45.7013 22.71 46.8614 22.1709 47.7052 21.0928H47.7638V22.5107H50.752V10.792H47.6114ZM44.7755 19.8975C43.8848 19.8975 43.17 19.6045 42.6075 19.0068C42.045 18.4209 41.7755 17.6475 41.7755 16.6982C41.7755 15.7139 42.0567 14.9287 42.6309 14.3193C43.2052 13.7217 43.92 13.417 44.7872 13.417C45.6309 13.417 46.3341 13.7334 46.8966 14.3545C47.4591 14.9873 47.7403 15.7607 47.7403 16.6982C47.7403 17.6475 47.4473 18.4209 46.8848 19.0068C46.3106 19.6045 45.6075 19.8975 44.7755 19.8975ZM59.4923 10.5928C57.9923 10.5928 56.8088 11.1084 55.9416 12.1396H55.8947V10.792H52.7541V27.2568H55.8947V21.1982H55.9416C56.7736 22.2061 57.922 22.71 59.3986 22.71C60.1955 22.71 60.9455 22.5693 61.6369 22.2764C62.3283 21.9951 62.9259 21.585 63.4181 21.0693C63.9103 20.5537 64.3088 19.9092 64.59 19.1592C64.8713 18.4092 65.0119 17.5771 65.0119 16.6865C65.0119 15.9834 64.9181 15.3271 64.7423 14.6943C64.5548 14.0615 64.297 13.499 63.9689 13.0068C63.6408 12.5146 63.2423 12.0811 62.797 11.7178C62.34 11.3545 61.8244 11.0732 61.2619 10.8857C60.6994 10.6982 60.1017 10.5928 59.4923 10.5928ZM58.8244 19.8975C58.2502 19.8975 57.7345 19.7686 57.2658 19.5107C56.797 19.2529 56.4338 18.8662 56.1642 18.374C55.8947 17.8818 55.7658 17.3311 55.7658 16.6982C55.7658 16.2412 55.8361 15.8076 55.9884 15.3975C56.1408 14.999 56.3517 14.6475 56.6213 14.3545C56.8791 14.0732 57.2072 13.8389 57.5822 13.6748C57.9572 13.5107 58.3791 13.417 58.8244 13.417C59.6798 13.417 60.3947 13.7217 60.9689 14.3193C61.5314 14.9287 61.8244 15.7139 61.8244 16.6982C61.8244 17.6475 61.5431 18.4209 60.9806 19.0068C60.4181 19.6045 59.7033 19.8975 58.8244 19.8975ZM73.4123 10.792L70.7287 18.0459H70.6936L67.8225 10.792H64.5412L69.2287 21.7842L67.1428 27.2568H70.3537L76.6702 10.792H73.4123ZM85.5394 4.83887V12.1162H85.4808C84.5902 11.1084 83.4183 10.5928 81.9417 10.5928C81.1683 10.5928 80.43 10.7451 79.7503 11.0498C79.0706 11.3545 78.4847 11.7764 77.9925 12.3037C77.5003 12.8428 77.1253 13.4873 76.8441 14.2373C76.5628 14.999 76.4222 15.8193 76.4222 16.6865C76.4222 17.2021 76.4691 17.6943 76.5628 18.1631C76.6566 18.6318 76.7855 19.0654 76.9613 19.4639C77.137 19.8623 77.348 20.2373 77.6058 20.5771C77.8519 20.9287 78.1331 21.2217 78.4613 21.4795C78.7777 21.7373 79.1175 21.96 79.4925 22.1475C79.8675 22.335 80.2659 22.4756 80.6995 22.5693C81.1214 22.6631 81.5667 22.71 82.0355 22.71C83.5706 22.71 84.7659 22.1709 85.6214 21.0928H85.6917V22.5107H88.68V4.83887H85.5394ZM82.6097 19.8975C81.7191 19.8975 81.0042 19.6045 80.4417 19.0068C79.8792 18.4209 79.6097 17.6475 79.6097 16.6982C79.6097 15.7139 79.8909 14.9287 80.4652 14.3193C81.0394 13.7217 81.7542 13.417 82.6214 13.417C83.512 13.417 84.2386 13.7334 84.8245 14.3545C85.4105 14.9873 85.7034 15.7607 85.7034 16.6982C85.7034 17.3311 85.5628 17.8818 85.2816 18.374C85.0003 18.8662 84.637 19.2529 84.1683 19.5107C83.6995 19.7686 83.1722 19.8975 82.6097 19.8975Z" fill="white"/>
<path d="M21.8643 9.1874C21.6567 9.1874 21.449 9.11507 21.2822 8.96573C19.2662 7.1679 16.6797 6.1774 13.9998 6.1774C11.32 6.1774 8.7335 7.1679 6.7175 8.96573C6.357 9.2854 5.80283 9.2574 5.482 8.89457C5.16 8.53407 5.1915 7.9799 5.55317 7.65907C7.89 5.5754 10.8895 4.4274 13.9998 4.4274C17.1102 4.4274 20.1097 5.5754 22.4465 7.65907C22.8082 7.98107 22.8397 8.53407 22.5177 8.89457C22.345 9.08823 22.1047 9.1874 21.8643 9.1874Z" fill="white"/>
<path d="M23.0427 13.6336C22.7638 13.6336 22.4897 13.5006 22.3205 13.2532C20.4235 10.4906 17.3132 8.84091 13.9998 8.84091C10.6865 8.84091 7.57617 10.4906 5.67917 13.2544C5.40617 13.6511 4.86367 13.7572 4.46234 13.4807C4.06451 13.2077 3.96301 12.6629 4.23717 12.2651C6.45967 9.02408 10.109 7.09091 13.9998 7.09091C17.8907 7.09091 21.54 9.02525 23.7625 12.2639C24.0355 12.6617 23.934 13.2066 23.5373 13.4796C23.3857 13.5846 23.2118 13.6336 23.0427 13.6336Z" fill="white"/>
<path d="M11.8031 26.5941C11.5814 26.5941 11.3586 26.5101 11.1882 26.3421C11.0342 26.1904 7.41406 22.5737 7.41406 19.0621C7.41406 15.3976 10.3681 12.4167 14.0011 12.4167C17.6341 12.4167 20.5881 15.3976 20.5881 19.0621C20.5881 19.5451 20.1961 19.9371 19.7131 19.9371C19.2301 19.9371 18.8381 19.5451 18.8381 19.0621C18.8381 16.3636 16.6692 14.1667 14.0011 14.1667C11.3329 14.1667 9.16406 16.3624 9.16406 19.0621C9.16406 21.8411 12.3876 25.0657 12.4191 25.0972C12.7621 25.4379 12.7656 25.9909 12.4261 26.3351C12.2546 26.5077 12.0294 26.5941 11.8031 26.5941Z" fill="white"/>
<path d="M16.1969 26.5941C14.4725 26.5941 10.4779 23.3986 10.0917 19.8391C9.95403 18.5557 10.3495 17.2876 11.1767 16.3612C11.9094 15.5399 12.9045 15.0849 13.9802 15.0791C15.0675 15.1012 16.0265 15.4816 16.7755 16.2271C17.5339 16.9807 17.9515 17.9876 17.9515 19.0609V19.5042C17.9515 20.4901 18.7425 21.2927 19.7132 21.2927C20.6839 21.2927 21.4749 20.4901 21.4749 19.5042V19.3491C21.4749 15.2144 18.4112 11.7739 14.5005 11.5196C12.4134 11.3796 10.4417 12.0924 8.9227 13.5146C7.4002 14.9414 6.52637 16.9632 6.52637 19.0609C6.52637 20.8144 7.1342 22.5224 8.23553 23.8711C8.5412 24.2456 8.4852 24.7962 8.11187 25.1019C7.73737 25.4087 7.1867 25.3516 6.87987 24.9782C5.5242 23.3181 4.77637 21.2157 4.77637 19.0609C4.77637 16.4802 5.85203 13.9929 7.7257 12.2371C9.6017 10.4801 12.054 9.60507 14.6114 9.77307C19.4402 10.0892 23.2214 14.2951 23.2214 19.3491V19.5042C23.2214 21.4549 21.6452 23.0427 19.7097 23.0427C17.7742 23.0427 16.198 21.4561 16.198 19.5042V19.0609C16.198 18.4566 15.9635 17.8907 15.5389 17.4672C15.1259 17.0554 14.5787 16.8291 13.9989 16.8291C13.9942 16.8291 13.9907 16.8291 13.9872 16.8291C13.2522 16.8326 12.7622 17.2106 12.4799 17.5267C11.9887 18.0774 11.746 18.8707 11.83 19.6512C12.1217 22.3287 15.3452 24.8441 16.1969 24.8441C16.6799 24.8441 17.0719 25.2361 17.0719 25.7191C17.0719 26.2021 16.6799 26.5941 16.1969 26.5941Z" fill="white"/>
<path d="M18.7788 25.2629C16.1935 25.2629 13.0703 22.2984 13.0703 18.6176C13.0703 18.1346 13.4623 17.7426 13.9453 17.7426C14.4283 17.7426 14.8203 18.1346 14.8203 18.6176C14.8203 21.3196 17.2155 23.5129 18.7788 23.5129C19.2618 23.5129 19.6538 23.9049 19.6538 24.3879C19.6538 24.8709 19.2618 25.2629 18.7788 25.2629Z" fill="white"/>
</svg>
